<svg width="80" height="80" viewBox="0 0 80 80" fill="none" xmlns="http://www.w3.org/2000/svg">
<circle cx="40" cy="40" r="40" fill="#EAFAF3"/>
<path fill-rule="evenodd" clip-rule="evenodd" d="M42.3581 50.5581C42.3581 50.5981 42.3581 50.6384 42.3581 50.6791V55.8381C42.3581 56.788 41.588 57.5581 40.6381 57.5581C39.6881 57.5581 38.9181 56.788 38.9181 55.8381L38.9181 50.6781C38.9181 50.6374 38.9181 50.5971 38.9181 50.5571C32.9955 49.699 28.6013 44.6225 28.6011 38.6381L32.0411 38.6381C32.0411 43.3877 35.8914 47.2381 40.6411 47.2381C45.3907 47.2381 49.2411 43.3877 49.2411 38.6381H52.6811C52.6811 44.6244 48.2838 49.7023 42.3585 50.558L42.3581 50.5581Z" fill="#2DCA8C"/>
<path opacity="0.3" fill-rule="evenodd" clip-rule="evenodd" d="M35 33.5V28.5C35 26.9812 35.537 25.6849 36.6109 24.6109C37.6849 23.537 38.9812 23 40.5 23C42.0188 23 43.3151 23.537 44.3891 24.6109C45.463 25.6849 46 26.9812 46 28.5V38.5C46 40.0188 45.463 41.3151 44.3891 42.3891C43.3151 43.463 42.0188 44 40.5 44C38.9812 44 37.6849 43.463 36.6109 42.3891C35.537 41.3151 35 40.0188 35 38.5V33.5Z" fill="#2DCA8C"/>
</svg>
