<svg width="80" height="80" viewBox="0 0 80 80" fill="none" xmlns="http://www.w3.org/2000/svg">
<circle cx="40" cy="40" r="40" fill="#FFF2D8"/>
<path opacity="0.3" fill-rule="evenodd" clip-rule="evenodd" d="M28.204 21.1499H39.824C40.4231 21.1502 41.0028 21.3628 41.46 21.7499L49.506 28.5559C50.0761 29.0367 50.4053 29.7442 50.406 30.4899V51.6949C50.406 54.7199 50.372 54.9329 47.269 54.9329H28.204C25.102 54.9329 25.067 54.7199 25.067 51.6949V24.3879C25.067 21.3629 25.102 21.1499 28.204 21.1499ZM33.513 39.7299C32.9095 39.7297 32.3517 40.0516 32.0498 40.5742C31.748 41.0969 31.748 41.7409 32.0498 42.2636C32.3517 42.7862 32.9095 43.1081 33.513 43.1079H45.337C46.2696 43.1076 47.0254 42.3515 47.0254 41.4189C47.0254 40.4863 46.2696 39.7302 45.337 39.7299L33.513 39.7299ZM33.513 46.4869C32.9095 46.4867 32.3517 46.8086 32.0498 47.3312C31.748 47.8539 31.748 48.4979 32.0498 49.0206C32.3517 49.5432 32.9095 49.8651 33.513 49.8649H38.58C39.1836 49.8651 39.7414 49.5432 40.0432 49.0206C40.3451 48.4979 40.3451 47.8539 40.0432 47.3312C39.7414 46.8086 39.1836 46.4867 38.58 46.4869L33.513 46.4869Z" fill="#FFBE3D"/>
<path fill-rule="evenodd" clip-rule="evenodd" d="M31.583 24.5278H44.892C45.4912 24.5281 46.0708 24.7407 46.528 25.1278L54.574 31.9338C55.1441 32.4146 55.4734 33.1221 55.474 33.8678V55.0728C55.474 58.0978 55.44 58.3108 52.337 58.3108H31.583C28.481 58.3108 28.446 58.0978 28.446 55.0728V27.7658C28.446 24.7408 28.481 24.5278 31.583 24.5278ZM33.513 39.7278C32.9095 39.7276 32.3517 40.0495 32.0498 40.5722C31.748 41.0948 31.748 41.7388 32.0499 42.2615C32.3517 42.7842 32.9095 43.106 33.5131 43.1058L45.337 43.1058C45.9406 43.106 46.4984 42.7842 46.8002 42.2615C47.1021 41.7388 47.1021 41.0948 46.8002 40.5722C46.4984 40.0495 45.9406 39.7276 45.337 39.7278H33.513ZM33.513 46.4848C32.9095 46.4846 32.3517 46.8065 32.0498 47.3292C31.748 47.8518 31.748 48.4958 32.0499 49.0185C32.3517 49.5412 32.9095 49.863 33.5131 49.8628L38.58 49.8628C39.1836 49.863 39.7414 49.5412 40.0432 49.0185C40.3451 48.4958 40.3451 47.8518 40.0432 47.3292C39.7414 46.8065 39.1836 46.4846 38.58 46.4848H33.513Z" fill="#FFBE3D"/>
</svg>
