<svg width="80" height="80" viewBox="0 0 80 80" fill="none" xmlns="http://www.w3.org/2000/svg">
<circle cx="40" cy="40" r="40" fill="#E5F1FF"/>
<path fill-rule="evenodd" clip-rule="evenodd" d="M41.805 50.9989C41.5366 47.0402 39.573 43.3898 36.4178 40.984C33.2625 38.5781 29.2226 37.6508 25.334 38.4399L25.334 30.8309C25.334 28.8057 26.9758 27.1639 29.001 27.1639H54.669C56.6934 27.165 58.334 28.8065 58.334 30.8309V47.3309C58.334 49.3562 56.6922 50.9979 54.667 50.9979L41.805 50.9989ZM53.105 30.5369L41.834 36.6029L30.57 30.5369C30.1356 30.2816 29.5963 30.2843 29.1645 30.5441C28.7327 30.8038 28.4776 31.279 28.4996 31.7824C28.5216 32.2858 28.8172 32.7369 29.27 32.9579L41.187 39.3749C41.593 39.5925 42.081 39.5925 42.487 39.3749L54.404 32.9579C54.8568 32.7369 55.1524 32.2858 55.1744 31.7824C55.1964 31.279 54.9413 30.8038 54.5095 30.5441C54.0777 30.2843 53.5384 30.2816 53.104 30.5369L53.105 30.5369Z" fill="#377DFF"/>
<path opacity="0.3" fill-rule="evenodd" clip-rule="evenodd" d="M32.667 49.165C33.6793 49.165 34.5 49.9856 34.5 50.998V56.498C34.5005 56.9845 34.3076 57.4512 33.9638 57.7954C33.62 58.1396 33.1535 58.333 32.667 58.333H23.5C23.0137 58.333 22.5473 58.1397 22.2035 57.7957C21.8597 57.4518 21.6667 56.9853 21.667 56.499V50.999C21.6668 50.5125 21.8598 50.0461 22.2036 49.7021C22.5474 49.3582 23.0138 49.1649 23.5001 49.165L23.5 48.248C23.537 45.743 25.5782 43.7317 28.0835 43.7317C30.5888 43.7317 32.63 45.743 32.667 48.248V49.165ZM28.084 45.498C26.5652 45.498 25.334 46.7292 25.334 48.248V49.165H30.834V48.248C30.834 46.7292 29.6028 45.498 28.084 45.498Z" fill="#377DFF"/>
</svg>
