<svg width="41" height="41" viewBox="0 0 41 41" fill="none" xmlns="http://www.w3.org/2000/svg">
<path opacity="0.3" fill-rule="evenodd" clip-rule="evenodd" d="M8.20402 2.1499H19.824C20.4231 2.15021 21.0028 2.36279 21.46 2.7499L29.506 9.5559C30.0761 10.0367 30.4053 10.7442 30.406 11.4899V32.6949C30.406 35.7199 30.372 35.9329 27.269 35.9329H8.20402C5.10202 35.9329 5.06702 35.7199 5.06702 32.6949V5.3879C5.06702 2.3629 5.10202 2.1499 8.20402 2.1499ZM13.513 20.7299C12.9095 20.7297 12.3517 21.0516 12.0498 21.5742C11.748 22.0969 11.748 22.7409 12.0498 23.2636C12.3517 23.7862 12.9095 24.1081 13.513 24.1079H25.337C26.2696 24.1076 27.0254 23.3515 27.0254 22.4189C27.0254 21.4863 26.2696 20.7302 25.337 20.7299L13.513 20.7299ZM13.513 27.4869C12.9095 27.4867 12.3517 27.8086 12.0498 28.3312C11.748 28.8539 11.748 29.4979 12.0498 30.0206C12.3517 30.5432 12.9095 30.8651 13.513 30.8649H18.58C19.1836 30.8651 19.7414 30.5432 20.0432 30.0206C20.3451 29.4979 20.3451 28.8539 20.0432 28.3312C19.7414 27.8086 19.1836 27.4867 18.58 27.4869L13.513 27.4869Z" fill="#FFBE3D"/>
<path fill-rule="evenodd" clip-rule="evenodd" d="M11.583 5.52783H24.892C25.4912 5.52814 26.0708 5.74072 26.528 6.12783L34.574 12.9338C35.1441 13.4146 35.4734 14.1221 35.474 14.8678V36.0728C35.474 39.0978 35.44 39.3108 32.337 39.3108H11.583C8.48104 39.3108 8.44604 39.0978 8.44604 36.0728V8.76583C8.44604 5.74083 8.48104 5.52783 11.583 5.52783ZM13.513 20.7278C12.9095 20.7276 12.3517 21.0495 12.0498 21.5722C11.748 22.0948 11.748 22.7388 12.0499 23.2615C12.3517 23.7842 12.9095 24.106 13.5131 24.1058L25.337 24.1058C25.9406 24.106 26.4984 23.7842 26.8002 23.2615C27.1021 22.7388 27.1021 22.0948 26.8002 21.5722C26.4984 21.0495 25.9406 20.7276 25.337 20.7278H13.513ZM13.513 27.4848C12.9095 27.4846 12.3517 27.8065 12.0498 28.3292C11.748 28.8518 11.748 29.4958 12.0499 30.0185C12.3517 30.5412 12.9095 30.863 13.5131 30.8628L18.58 30.8628C19.1836 30.863 19.7414 30.5412 20.0432 30.0185C20.3451 29.4958 20.3451 28.8518 20.0432 28.3292C19.7414 27.8065 19.1836 27.4846 18.58 27.4848H13.513Z" fill="#FFBE3D"/>
</svg>
