<svg width="25" height="35" viewBox="0 0 25 35" fill="none" xmlns="http://www.w3.org/2000/svg">
<path fill-rule="evenodd" clip-rule="evenodd" d="M14.3581 27.5581C14.3581 27.5981 14.3581 27.6384 14.3581 27.6791V32.8381C14.3581 33.788 13.588 34.5581 12.6381 34.5581C11.6881 34.5581 10.9181 33.788 10.9181 32.8381L10.9181 27.6781C10.9181 27.6374 10.9181 27.5971 10.9181 27.5571C4.99552 26.699 0.60134 21.6225 0.601074 15.6381L4.04107 15.6381C4.04107 20.3877 7.89142 24.2381 12.6411 24.2381C17.3907 24.2381 21.2411 20.3877 21.2411 15.6381H24.6811C24.6811 21.6244 20.2838 26.7023 14.3585 27.558L14.3581 27.5581Z" fill="#2DCA8C"/>
<path opacity="0.3" fill-rule="evenodd" clip-rule="evenodd" d="M7 10.5V5.5C7 3.98122 7.53697 2.68485 8.61091 1.61091C9.68485 0.536971 10.9812 0 12.5 0C14.0188 0 15.3151 0.536971 16.3891 1.61091C17.463 2.68485 18 3.98122 18 5.5V15.5C18 17.0188 17.463 18.3151 16.3891 19.3891C15.3151 20.463 14.0188 21 12.5 21C10.9812 21 9.68485 20.463 8.61091 19.3891C7.53697 18.3151 7 17.0188 7 15.5V10.5Z" fill="#2DCA8C"/>
</svg>
