<svg width="38" height="32" viewBox="0 0 38 32" fill="none" xmlns="http://www.w3.org/2000/svg">
<path fill-rule="evenodd" clip-rule="evenodd" d="M20.805 23.9989C20.5366 20.0402 18.573 16.3898 15.4178 13.984C12.2625 11.5781 8.22256 10.6508 4.33398 11.4399L4.33399 3.83094C4.33399 1.80571 5.97576 0.16394 8.00099 0.16394H33.669C35.6934 0.165044 37.334 1.80649 37.334 3.83094V20.3309C37.334 22.3562 35.6922 23.9979 33.667 23.9979L20.805 23.9989ZM32.105 3.53694L20.834 9.60294L9.56999 3.53694C9.13558 3.2816 8.59629 3.28435 8.16449 3.54409C7.7327 3.80384 7.47757 4.27896 7.49957 4.78238C7.52157 5.2858 7.81718 5.73686 8.26999 5.95794L20.187 12.3749C20.593 12.5925 21.081 12.5925 21.487 12.3749L33.404 5.95794C33.8568 5.73686 34.1524 5.2858 34.1744 4.78238C34.1964 4.27896 33.9413 3.80383 33.5095 3.54409C33.0777 3.28435 32.5384 3.2816 32.104 3.53694L32.105 3.53694Z" fill="#377DFF"/>
<path opacity="0.3" fill-rule="evenodd" clip-rule="evenodd" d="M11.667 22.165C12.6793 22.165 13.5 22.9856 13.5 23.998V29.498C13.5005 29.9845 13.3076 30.4512 12.9638 30.7954C12.62 31.1396 12.1535 31.333 11.667 31.333H2.49999C2.01368 31.333 1.5473 31.1397 1.20351 30.7957C0.859729 30.4518 0.666727 29.9853 0.666992 29.499V23.999C0.666755 23.5125 0.859784 23.0461 1.20359 22.7021C1.54739 22.3582 2.01378 22.1649 2.5001 22.165L2.49999 21.248C2.537 18.743 4.57823 16.7317 7.08349 16.7317C9.58876 16.7317 11.63 18.743 11.667 21.248V22.165ZM7.08399 18.498C5.56521 18.498 4.33399 19.7292 4.33399 21.248V22.165H9.83399V21.248C9.83399 19.7292 8.60277 18.498 7.08399 18.498Z" fill="#377DFF"/>
</svg>
