<svg width="20" height="21" viewBox="0 0 20 21" fill="none" xmlns="http://www.w3.org/2000/svg">
<path fill-rule="evenodd" clip-rule="evenodd" d="M1.28113 11.747L15.6261 11.747L9.35313 18.023C9.10777 18.2566 8.9689 18.5807 8.9689 18.9195C8.9689 19.2583 9.10777 19.5823 9.35313 19.816C9.58679 20.0613 9.91081 20.2002 10.2496 20.2002C10.5884 20.2002 10.9125 20.0613 11.1461 19.816L19.4691 11.491C19.9823 10.9044 19.9823 10.0286 19.4691 9.44197L11.1441 1.11697C10.9105 0.871613 10.5865 0.732746 10.2476 0.732746C9.90881 0.732746 9.58479 0.871613 9.35113 1.11697H9.35113C9.10577 1.35064 8.9669 1.67465 8.9669 2.01347C8.9669 2.35229 9.10577 2.67631 9.35113 2.90997L15.6261 9.18497L1.28113 9.18497C0.935387 9.16401 0.597237 9.29223 0.352314 9.53715C0.107388 9.78208 -0.0208321 10.1202 0.0001297 10.466C-0.0208321 10.8117 0.107388 11.1499 0.35231 11.3948C0.597237 11.6397 0.935383 11.7679 1.28113 11.747Z" fill="#377DFF"/>
</svg>
