<svg width="80" height="80" viewBox="0 0 80 80" fill="none" xmlns="http://www.w3.org/2000/svg">
<circle cx="40" cy="40" r="40" fill="#EAFAF3"/>
<path opacity="0.3" fill-rule="evenodd" clip-rule="evenodd" d="M23 40C23 35.0294 24.7574 30.7868 28.2721 27.2721C31.7868 23.7574 36.0294 22 41 22C45.9706 22 50.2132 23.7574 53.7279 27.2721C57.2426 30.7868 59 35.0294 59 40C59 44.9706 57.2426 49.2132 53.7279 52.7279C50.2132 56.2426 45.9706 58 41 58C36.0294 58 31.7868 56.2426 28.2721 52.7279C24.7574 49.2132 23 44.9706 23 40Z" fill="#2DCA8C"/>
<path fill-rule="evenodd" clip-rule="evenodd" d="M30.7519 44.534C30.3972 44.016 30.3484 43.3473 30.6243 42.7833C30.9002 42.2193 31.458 41.8473 32.0847 41.8094C32.7114 41.7714 33.31 42.0735 33.6519 42.6C35.6689 45.626 38.0519 47.053 40.9179 47.053C43.7839 47.053 46.1669 45.625 48.1839 42.6C48.5258 42.0734 49.1245 41.7714 49.7511 41.8093C50.3778 41.8473 50.9357 42.2193 51.2115 42.7833C51.4874 43.3473 51.4387 44.016 51.0839 44.534C48.4519 48.481 45.0209 50.54 40.9169 50.54C36.8129 50.54 33.3839 48.482 30.7519 44.534Z" fill="#2DCA8C"/>
</svg>
